<svg id="Capa_1" enable-background="new 0 0 512 512" height="512" viewBox="0 0 512 512" width="512" xmlns="http://www.w3.org/2000/svg"><g><path d="m497 0h-292c-8.284 0-15 6.716-15 15v156.317c-6.364-.649-12.768-.981-19.166-.983-12.634 0-25.292 1.273-37.622 3.784-6.987 1.423-12.007 7.567-12.007 14.698v25.514c-1.668.653-3.322 1.34-4.962 2.06l-18.045-18.045c-5.041-5.042-12.937-5.839-18.883-1.903-10.486 6.936-20.336 14.987-29.277 23.928-8.944 8.944-16.996 18.795-23.93 29.28-3.933 5.946-3.137 13.84 1.905 18.881l18.044 18.045c-.719 1.64-1.406 3.294-2.059 4.962h-25.518c-7.13 0-13.275 5.02-14.698 12.006-2.509 12.318-3.782 24.977-3.782 37.624 0 12.646 1.273 25.304 3.782 37.623 1.423 6.986 7.568 12.006 14.698 12.006h25.517c.654 1.668 1.341 3.322 2.059 4.962l-18.044 18.045c-5.041 5.041-5.838 12.935-1.905 18.881 6.935 10.485 14.986 20.336 23.931 29.281 8.94 8.94 18.791 16.99 29.277 23.927 5.947 3.934 13.841 3.139 18.883-1.903l18.045-18.045c1.64.72 3.294 1.406 4.962 2.06v25.514c0 7.131 5.02 13.275 12.007 14.698 12.33 2.511 24.988 3.784 37.624 3.784h326.164c8.284 0 15-6.716 15-15v-482.001c0-8.284-6.716-15-15-15zm-307 372.712c-5.752 3.509-12.373 5.4-19.166 5.4-20.372 0-36.945-16.573-36.945-36.944 0-20.372 16.574-36.945 36.945-36.945 6.793 0 13.414 1.892 19.166 5.4zm-19.166 109.288c-6.56 0-13.126-.408-19.629-1.216v-23.461c0-6.631-4.354-12.475-10.707-14.373-6.985-2.086-13.76-4.899-20.138-8.361-5.838-3.169-13.065-2.121-17.763 2.576l-16.607 16.607c-5.167-4.024-10.097-8.379-14.739-13.02-4.643-4.643-8.998-9.573-13.021-14.739l16.607-16.607c4.698-4.696 5.746-11.926 2.576-17.764-3.462-6.377-6.274-13.151-8.36-20.136-1.897-6.354-7.742-10.709-14.373-10.709h-23.466c-.807-6.499-1.214-13.067-1.214-19.631s.407-13.131 1.214-19.629h23.466c6.631 0 12.476-4.355 14.373-10.709 2.086-6.984 4.898-13.759 8.36-20.136 3.17-5.838 2.122-13.065-2.576-17.764l-16.607-16.607c4.024-5.166 8.379-10.097 13.021-14.737 4.642-4.643 9.572-8.997 14.739-13.021l16.607 16.606c4.697 4.698 11.924 5.746 17.763 2.576 6.377-3.462 13.153-6.275 20.138-8.361 6.354-1.898 10.707-7.742 10.707-14.373v-23.461c12.853-1.597 25.939-1.615 38.795-.053v75.556c-6.174-1.852-12.623-2.83-19.166-2.83-36.914 0-66.945 30.031-66.945 66.945 0 36.913 30.032 66.944 66.945 66.944 6.543 0 12.992-.978 19.166-2.83v76.717zm311.166 0h-262v-452h262z"/><path d="m290 228.531v195.469c0 8.284 6.716 15 15 15s15-6.716 15-15v-195.469c18.58-6.275 32-23.859 32-44.531s-13.42-38.256-32-44.531v-51.469c0-8.284-6.716-15-15-15s-15 6.716-15 15v51.469c-18.58 6.275-32 23.859-32 44.531s13.42 38.256 32 44.531zm15-61.531c9.374 0 17 7.627 17 17 0 9.371-7.621 16.994-16.99 17-.004 0-.007-.001-.01-.001s-.006.001-.01.001c-9.369-.006-16.99-7.629-16.99-17 0-9.373 7.626-17 17-17z"/><path d="m385 372.192v51.808c0 8.284 6.716 15 15 15s15-6.716 15-15v-51.13c19.1-5.972 33-23.827 33-44.87 0-20.672-13.42-38.256-32-44.531v-195.469c0-8.284-6.716-15-15-15s-15 6.716-15 15v195.469c-18.58 6.275-32 23.859-32 44.531 0 20.301 12.938 37.633 31 44.192zm16-61.192c9.374 0 17 7.627 17 17 0 9.374-7.626 17-17 17s-17-7.626-17-17c0-9.373 7.626-17 17-17z"/></g></svg>