<svg id="_x31__x2C_5px" enable-background="new 0 0 24 24" height="512" viewBox="0 0 24 24" width="512" xmlns="http://www.w3.org/2000/svg"><path d="m12 1.75c-6.21 0-11.25 4.93-11.25 11h22.5c0-6.07-5.04-11-11.25-11z" fill="#eceff1"/><path d="m12 14.25c-.689 0-1.25-.561-1.25-1.25s.561-1.25 1.25-1.25 1.25.561 1.25 1.25-.561 1.25-1.25 1.25z" fill="#607d8b"/><path d="m16.25 20h-2.5c-.414 0-.75-.336-.75-.75s.336-.75.75-.75h2.5c.414 0 .75.336.75.75s-.336.75-.75.75z"/><path d="m16.25 22c-.414 0-.75-.336-.75-.75v-4.5c0-.414.336-.75.75-.75s.75.336.75.75v4.5c0 .414-.336.75-.75.75z"/><path d="m13.75 22c-.414 0-.75-.336-.75-.75v-4.5c0-.414.336-.75.75-.75s.75.336.75.75v4.5c0 .414-.336.75-.75.75z"/><path d="m23.25 13.5h-9.783c-.414 0-.75-.336-.75-.75s.336-.75.75-.75h9.005c-.394-5.303-4.941-9.5-10.472-9.5s-10.078 4.197-10.472 9.5h9.005c.414 0 .75.336.75.75s-.336.75-.75.75h-9.783c-.414 0-.75-.336-.75-.75 0-6.479 5.383-11.75 12-11.75s12 5.271 12 11.75c0 .414-.336.75-.75.75z"/><path d="m12 15c-1.103 0-2-.897-2-2s.897-2 2-2 2 .897 2 2-.897 2-2 2zm0-2.5c-.276 0-.5.224-.5.5s.224.5.5.5.5-.224.5-.5-.224-.5-.5-.5z"/><path d="m5.76 13.5c-.01 0-.02 0-.03 0-.414-.016-.736-.365-.72-.779.147-3.769 3.218-6.721 6.99-6.721 1.118 0 2.234.275 3.228.795.367.192.509.646.317 1.012-.192.368-.646.51-1.012.317-.781-.408-1.657-.624-2.533-.624-2.963 0-5.375 2.319-5.491 5.279-.015.404-.348.721-.749.721z"/><path d="m18.24 13.5c-.401 0-.734-.318-.749-.723-.034-.929-.304-1.834-.781-2.617-.215-.354-.103-.815.25-1.031.354-.215.815-.104 1.031.25.61 1.002.956 2.158.999 3.343.015.414-.308.762-.722.777-.01.001-.019.001-.028.001z"/><path d="m12.689 12.43c-.117 0-.235-.027-.345-.084-.368-.191-.511-.644-.32-1.011l2.56-4.93c.191-.367.646-.511 1.011-.32.368.191.511.644.32 1.011l-2.56 4.93c-.133.257-.395.404-.666.404z"/><path d="m12 4c-.414 0-.75-.336-.75-.75v-1.25c0-.414.336-.75.75-.75s.75.336.75.75v1.25c0 .414-.336.75-.75.75z"/><path d="m18.97 6.78c-.192 0-.384-.073-.53-.22-.293-.293-.293-.768 0-1.061l1.02-1.02c.293-.293.768-.293 1.061 0s.293.768 0 1.061l-1.021 1.02c-.146.147-.338.22-.53.22z"/><path d="m5.03 6.78c-.192 0-.384-.073-.53-.22l-1.02-1.02c-.293-.293-.293-.768 0-1.061s.768-.293 1.061 0l1.019 1.021c.293.293.293.768 0 1.061-.146.146-.338.219-.53.219z"/><path d="m8.75 24c-.414 0-.75-.336-.75-.75v-4.5c0-.414.336-.75.75-.75h1.25c1.103 0 2 .897 2 2s-.897 2-2 2h-.5v1.25c0 .414-.336.75-.75.75zm.75-3.5h.5c.276 0 .5-.224.5-.5s-.224-.5-.5-.5h-.5z"/></svg>