<svg id="Capa_1" enable-background="new 0 0 511.976 511.976" height="512" viewBox="0 0 511.976 511.976" width="512" xmlns="http://www.w3.org/2000/svg"><g><path d="m363.359 200.771v-21.246l109.562-10.677v-85.865l-109.562-10.676v-21.247h-90.986v19.855h-147.373c-68.925 0-125 56.075-125 125s56.075 125 125 125h52.373c8.271 0 15 6.729 15 15s-6.729 15-15 15h-177.373v30h177.373c24.813 0 45-20.187 45-45s-20.187-45-45-45h-52.373c-52.383 0-95-42.617-95-95s42.617-95 95-95h147.373v50h-147.373c-24.813 0-45 20.187-45 45s20.187 45 45 45h52.373c52.383 0 95 42.617 95 95s-42.617 95-95 95h-177.373v30h177.373c68.925 0 125-56.075 125-125s-56.075-125-125-125h-52.373c-8.271 0-15-6.729-15-15s6.729-15 15-15h147.373v19.855h90.986zm79.562-90.569v31.428l-79.562 7.753v-46.935zm-140.548-29.142h30.986v89.711h-30.986z"/><path d="m502.72 274.721-44.799-66.257-44.799 66.257c-14.485 21.423-11.727 50.244 6.56 68.53 10.542 10.542 24.391 15.813 38.238 15.813 13.849 0 27.697-5.271 38.241-15.813 18.284-18.287 21.043-47.108 6.559-68.53zm-27.773 47.317c-9.389 9.389-24.666 9.388-34.053 0-8.142-8.142-9.37-20.975-2.921-30.513l19.947-29.501 19.947 29.501c6.45 9.538 5.222 22.371-2.92 30.513z"/></g></svg>