<svg id="Capa_1" enable-background="new 0 0 510 510" height="512" viewBox="0 0 510 510" width="512" xmlns="http://www.w3.org/2000/svg"><g><path d="m269.318 249.113-10.318-9.779-10.318 9.779c-.353.335-3.591 3.415-8.682 8.552v-40.222c27.556-22.574 45-59.921 45-97.443 0-66.168-53.832-120-120-120s-120 53.832-120 120c0 37.522 17.444 74.869 45 97.443v217.557c0 41.355 33.645 75 75 75 15.194 0 29.893-4.593 42.291-13.067 15.395 8.331 33.009 13.067 51.709 13.067 60.103 0 109-48.897 109-109 0-25.079-16.952-58.542-50.385-99.459-23.83-29.165-47.309-51.492-48.297-52.428zm-149.318 185.887v-232.825l-6.418-4.477c-23.437-16.35-38.582-46.848-38.582-77.698 0-49.626 40.374-90 90-90s90 40.374 90 90c0 30.85-15.145 61.348-38.582 77.698l-6.418 4.477v87.924c-3.163 3.666-6.385 7.489-9.615 11.443-7.667 9.384-14.457 18.37-20.385 26.958v-150.399c25.849-6.677 45-30.195 45-58.101 0-33.084-26.916-60-60-60s-60 26.916-60 60c0 27.906 19.151 51.424 45 58.101v222.899c0 29.562 11.834 56.407 31.008 76.062-5.066 1.927-10.483 2.938-16.008 2.938-24.813 0-45-20.187-45-45zm45-285c-16.542 0-30-13.458-30-30s13.458-30 30-30 30 13.458 30 30-13.458 30-30 30zm94 330c-43.561 0-79-35.439-79-79 0-10.095 5.642-33.942 43.422-80.24 13.285-16.279 26.71-30.557 35.578-39.617 8.869 9.061 22.293 23.338 35.578 39.617 37.78 46.298 43.422 70.145 43.422 80.24 0 43.561-35.439 79-79 79z"/><path d="m432.115 147.54c-15.18-18.578-30.167-32.83-30.797-33.427l-10.318-9.779-10.318 9.779c-.63.597-15.617 14.849-30.797 33.427-22.128 27.081-32.885 48.657-32.885 65.96 0 40.804 33.196 74 74 74s74-33.196 74-74c0-17.303-10.757-38.879-32.885-65.96zm-41.115 109.96c-24.262 0-44-19.738-44-44 0-15.361 23.188-45.505 44.006-67.306 20.816 21.78 43.994 51.907 43.994 67.306 0 24.262-19.738 44-44 44z"/></g></svg>